<svg width="400" height="14" viewBox="0 0 400 14" fill="none" xmlns="http://www.w3.org/2000/svg">
<mask id="mask0_10_80" style="mask-type:alpha" maskUnits="userSpaceOnUse" x="0" y="0" width="400" height="14">
<rect width="400" height="14" fill="#D9D9D9"/>
</mask>
<g mask="url(#mask0_10_80)">
<path d="M4.11196 -1.77649e-05C4.38944 -0.000264483 4.66423 0.0542071 4.92063 0.16028C5.17704 0.266353 5.41004 0.421944 5.60625 0.618151C5.80245 0.814359 5.95804 1.04733 6.06411 1.30373C6.17019 1.56014 6.22465 1.83494 6.2244 2.11242C6.22463 2.3899 6.17014 2.66469 6.06406 2.92109C5.95798 3.17749 5.8024 3.41045 5.60619 3.60666C5.40999 3.80286 5.17703 3.95845 4.92063 4.06453C4.66423 4.17061 4.38944 4.22509 4.11196 4.22486C3.55176 4.2247 3.01452 4.00208 2.6184 3.60596C2.22228 3.20984 1.99969 2.67263 1.99952 2.11242C1.99966 1.55221 2.22227 1.01498 2.6184 0.618849C3.01453 0.222718 3.55175 0.000115494 4.11196 -1.77649e-05ZM16.7441 -1.72127e-05C17.3043 0.00018661 17.8415 0.222812 18.2376 0.618928C18.6337 1.01504 18.8563 1.55223 18.8566 2.11242C18.8563 2.6726 18.6337 3.20977 18.2376 3.60588C17.8415 4.00199 17.3043 4.22463 16.7441 4.22486C16.1839 4.22463 15.6468 4.00199 15.2507 3.60588C14.8545 3.20977 14.6319 2.6726 14.6317 2.11242C14.6319 1.55223 14.8545 1.01505 15.2506 0.618932C15.6467 0.222817 16.1839 0.000189921 16.7441 -1.72127e-05ZM29.3725 -1.66607e-05C29.9327 0.000186043 30.4699 0.222811 30.866 0.618927C31.2621 1.01504 31.4848 1.55223 31.485 2.11242C31.4847 2.67261 31.2621 3.20977 30.866 3.60588C30.4699 4.00199 29.9327 4.22463 29.3725 4.22486C28.8123 4.2247 28.2751 4.00208 27.879 3.60596C27.4829 3.20984 27.2603 2.67263 27.2601 2.11242C27.2602 1.55221 27.4828 1.01498 27.879 0.61885C28.2751 0.222719 28.8123 0.000116598 29.3725 -1.66607e-05ZM42.0047 -1.61086e-05C42.5649 0.000187714 43.1021 0.222813 43.4982 0.618929C43.8943 1.01504 44.1169 1.55223 44.1171 2.11242C44.1169 2.67261 43.8943 3.20977 43.4981 3.60588C43.102 4.00199 42.5649 4.22463 42.0047 4.22487C41.7272 4.22509 41.4524 4.17061 41.196 4.06453C40.9396 3.95845 40.7067 3.80286 40.5105 3.60666C40.3143 3.41045 40.1587 3.17749 40.0526 2.92109C39.9465 2.6647 39.892 2.3899 39.8923 2.11242C39.892 1.83495 39.9465 1.56014 40.0525 1.30374C40.1586 1.04733 40.3142 0.814361 40.5104 0.618154C40.7066 0.421947 40.9396 0.266355 41.196 0.160282C41.4524 0.0542095 41.7272 -0.000262294 42.0047 -1.61086e-05ZM54.6327 -1.55566e-05C55.1929 0.000117751 55.7302 0.222721 56.1263 0.618851C56.5224 1.01498 56.745 1.55221 56.7452 2.11243C56.745 2.67263 56.5224 3.20984 56.1262 3.60596C55.7301 4.00208 55.1929 4.2247 54.6327 4.22487C54.0725 4.22463 53.5354 4.00199 53.1393 3.60588C52.7431 3.20978 52.5205 2.67261 52.5203 2.11242C52.5205 1.55223 52.7431 1.01504 53.1392 0.618928C53.5353 0.222812 54.0725 0.000187098 54.6327 -1.55566e-05ZM67.2611 -1.50046e-05C67.5386 -0.000261166 67.8134 0.0542107 68.0698 0.160284C68.3262 0.266356 68.5592 0.421948 68.7554 0.618155C68.9516 0.814363 69.1072 1.04733 69.2133 1.30374C69.3194 1.56014 69.3738 1.83495 69.3736 2.11243C69.3738 2.3899 69.3193 2.6647 69.2132 2.92109C69.1072 3.17749 68.9516 3.41045 68.7554 3.60666C68.5592 3.80286 68.3262 3.95845 68.0698 4.06453C67.8134 4.17061 67.5386 4.2251 67.2611 4.22487C66.701 4.22463 66.1638 4.00199 65.7677 3.60588C65.3716 3.20978 65.1489 2.67261 65.1487 2.11243C65.1489 1.55223 65.3715 1.01504 65.7677 0.61893C66.1638 0.222814 66.701 0.000188769 67.2611 -1.50046e-05ZM79.8933 -1.44524e-05C80.4535 0.000118855 80.9908 0.222722 81.3869 0.618852C81.783 1.01498 82.0056 1.55221 82.0057 2.11243C82.0056 2.67263 81.783 3.20984 81.3868 3.60596C80.9907 4.00208 80.4535 4.2247 79.8933 4.22487C79.3331 4.22463 78.7959 4.00199 78.3998 3.60588C78.0037 3.20978 77.7811 2.67261 77.7809 2.11243C77.7811 1.55223 78.0037 1.01504 78.3998 0.618929C78.7959 0.222814 79.3331 0.000188203 79.8933 -1.44524e-05ZM92.5217 -1.39004e-05C92.7992 -0.000260062 93.074 0.0542118 93.3304 0.160285C93.5868 0.266358 93.8198 0.421949 94.016 0.618157C94.2122 0.814364 94.3678 1.04734 94.4739 1.30374C94.58 1.56014 94.6344 1.83495 94.6342 2.11243C94.6344 2.3899 94.5799 2.6647 94.4738 2.92109C94.3677 3.17749 94.2122 3.41046 94.016 3.60666C93.8198 3.80286 93.5868 3.95846 93.3304 4.06453C93.074 4.17061 92.7992 4.2251 92.5217 4.22487C91.9615 4.22463 91.4244 4.00199 91.0283 3.60588C90.6322 3.20978 90.4095 2.67261 90.4093 2.11243C90.4095 1.55223 90.6321 1.01505 91.0282 0.618931C91.4244 0.222816 91.9615 0.000189874 92.5217 -1.39004e-05ZM105.154 -1.33482e-05C105.714 0.00011884 106.251 0.222721 106.647 0.618852C107.044 1.01498 107.266 1.55221 107.266 2.11243C107.266 2.67263 107.044 3.20984 106.647 3.60596C106.251 4.00209 105.714 4.2247 105.154 4.22487C104.594 4.22463 104.057 4.00199 103.66 3.60588C103.264 3.20978 103.042 2.67261 103.041 2.11243C103.042 1.55224 103.264 1.01505 103.66 0.618931C104.056 0.222816 104.594 0.000190426 105.154 -1.33482e-05ZM117.782 -1.27962e-05C118.343 0.000189908 118.88 0.222815 119.276 0.618931C119.672 1.01505 119.895 1.55224 119.895 2.11243C119.895 2.67261 119.672 3.20978 119.276 3.60589C118.88 4.00199 118.342 4.22463 117.782 4.22487C117.222 4.22463 116.685 4.00199 116.289 3.60589C115.893 3.20978 115.67 2.67261 115.67 2.11243C115.67 1.55224 115.893 1.01505 116.289 0.618931C116.685 0.222815 117.222 0.000189859 117.782 -1.27962e-05ZM130.414 -1.2244e-05C130.975 0.000119944 131.512 0.222722 131.908 0.618853C132.304 1.01498 132.527 1.55221 132.527 2.11243C132.527 2.67263 132.304 3.20984 131.908 3.60597C131.512 4.00209 130.975 4.2247 130.414 4.22487C130.137 4.2251 129.862 4.17061 129.606 4.06454C129.349 3.95846 129.116 3.80286 128.92 3.60666C128.724 3.41046 128.568 3.17749 128.462 2.9211C128.356 2.6647 128.302 2.3899 128.302 2.11243C128.302 1.83495 128.356 1.56015 128.462 1.30374C128.568 1.04734 128.724 0.814365 128.92 0.618158C129.116 0.421951 129.349 0.266359 129.606 0.160286C129.862 0.0542134 130.137 -0.00025843 130.414 -1.2244e-05ZM143.043 -1.1692e-05C143.603 0.000192131 144.14 0.222818 144.536 0.618933C144.932 1.01505 145.155 1.55224 145.155 2.11243C145.155 2.67261 144.932 3.20978 144.536 3.60589C144.14 4.00199 143.603 4.22463 143.043 4.22487C142.483 4.2247 141.945 4.00209 141.549 3.60596C141.153 3.20984 140.931 2.67263 140.93 2.11243C140.931 1.55222 141.153 1.01499 141.549 0.618855C141.945 0.222724 142.483 0.000121567 143.043 -1.1692e-05ZM155.671 -1.114e-05C155.948 -0.000292374 156.223 0.0541557 156.48 0.160216C156.736 0.266277 156.969 0.421867 157.165 0.618081C157.361 0.814295 157.517 1.04728 157.623 1.3037C157.729 1.56012 157.784 1.83494 157.783 2.11243C157.784 2.38991 157.729 2.66473 157.623 2.92114C157.517 3.17755 157.361 3.41053 157.165 3.60674C156.969 3.80295 156.736 3.95854 156.48 4.06461C156.223 4.17067 155.948 4.22513 155.671 4.22487C155.111 4.22463 154.574 4.002 154.177 3.60589C153.781 3.20978 153.559 2.67261 153.558 2.11243C153.559 1.55224 153.781 1.01505 154.177 0.618932C154.574 0.222817 155.111 0.000191515 155.671 -1.114e-05ZM168.303 -1.05879e-05C168.864 0.000193235 169.401 0.222819 169.797 0.618934C170.193 1.01505 170.416 1.55224 170.416 2.11243C170.416 2.67261 170.193 3.20978 169.797 3.60589C169.401 4.002 168.864 4.22463 168.303 4.22487C167.743 4.2247 167.206 4.00209 166.81 3.60597C166.414 3.20984 166.191 2.67263 166.191 2.11243C166.191 1.55222 166.414 1.01499 166.81 0.618856C167.206 0.222725 167.743 0.000122671 168.303 -1.05879e-05ZM180.931 -1.00359e-05C181.209 -0.000287929 181.484 0.0541622 181.74 0.160224C181.997 0.266286 182.23 0.421876 182.426 0.61809C182.622 0.814303 182.778 1.04729 182.884 1.30371C182.99 1.56012 183.044 1.83494 183.044 2.11243C183.044 2.38991 182.99 2.66473 182.884 2.92114C182.778 3.17755 182.622 3.41053 182.426 3.60674C182.23 3.80295 181.997 3.95854 181.74 4.06461C181.484 4.17068 181.209 4.22514 180.931 4.22487C180.371 4.22463 179.834 4.002 179.438 3.60589C179.042 3.20978 178.819 2.67261 178.819 2.11243C178.819 1.55224 179.042 1.01505 179.438 0.618933C179.834 0.222818 180.371 0.000192619 180.931 -1.00359e-05ZM193.564 -9.48368e-06C194.124 0.000194339 194.661 0.22282 195.058 0.618935C195.454 1.01505 195.676 1.55224 195.676 2.11243C195.676 2.67261 195.454 3.20978 195.058 3.60589C194.661 4.002 194.124 4.22463 193.564 4.22487C193.004 4.22471 192.467 4.00209 192.071 3.60597C191.674 3.20984 191.452 2.67263 191.452 2.11243C191.452 1.55222 191.674 1.01499 192.07 0.618856C192.467 0.222725 193.004 0.000122655 193.564 -9.48368e-06ZM206.192 -8.9317e-06C206.752 0.000194891 207.289 0.222821 207.686 0.618936C208.082 1.01505 208.304 1.55224 208.305 2.11243C208.304 2.67261 208.082 3.20978 207.686 3.60589C207.289 4.002 206.752 4.22463 206.192 4.22487C205.632 4.22464 205.095 4.002 204.699 3.60589C204.303 3.20978 204.08 2.67261 204.08 2.11243C204.08 1.55224 204.302 1.01505 204.699 0.618935C205.095 0.222819 205.632 0.000193723 206.192 -8.9317e-06ZM218.825 -8.37951e-06C219.385 0.000195443 219.922 0.222821 220.318 0.618936C220.714 1.01505 220.937 1.55224 220.937 2.11243C220.937 2.67261 220.714 3.20978 220.318 3.60589C219.922 4.002 219.385 4.22463 218.825 4.22487C218.547 4.22514 218.272 4.17068 218.016 4.06461C217.76 3.95854 217.527 3.80295 217.33 3.60674C217.134 3.41053 216.979 3.17755 216.872 2.92114C216.766 2.66473 216.712 2.38992 216.712 2.11243C216.712 1.83494 216.766 1.56012 216.872 1.3037C216.978 1.04728 217.134 0.814298 217.33 0.618084C217.527 0.42187 217.759 0.266279 218.016 0.160219C218.272 0.0541584 218.547 -0.000289637 218.825 -8.37951e-06ZM231.453 -7.82752e-06C232.013 0.000194876 232.55 0.22282 232.946 0.618936C233.342 1.01505 233.565 1.55224 233.565 2.11243C233.565 2.67261 233.342 3.20978 232.946 3.60589C232.55 4.002 232.013 4.22464 231.453 4.22487C230.892 4.22467 230.355 4.00205 229.959 3.60593C229.563 3.20981 229.34 2.67262 229.34 2.11243C229.34 1.55223 229.563 1.01502 229.959 0.618897C230.355 0.222774 230.892 0.000160133 231.453 -7.82752e-06ZM244.081 -7.27552e-06C244.641 0.000195428 245.178 0.222821 245.574 0.618936C245.97 1.01505 246.193 1.55224 246.193 2.11243C246.193 2.67261 245.97 3.20978 245.574 3.60589C245.178 4.002 244.641 4.22464 244.081 4.22487C243.521 4.22467 242.984 4.00205 242.587 3.60593C242.191 3.20982 241.969 2.67263 241.968 2.11243C241.969 1.55223 242.191 1.01502 242.587 0.618898C242.983 0.222775 243.521 0.000160685 244.081 -7.27552e-06ZM256.713 -6.72335e-06C257.273 0.000195981 257.811 0.222821 258.207 0.618937C258.603 1.01505 258.825 1.55224 258.826 2.11243C258.825 2.67262 258.603 3.20978 258.207 3.60589C257.811 4.002 257.273 4.22464 256.713 4.22487C256.153 4.22467 255.616 4.00205 255.22 3.60593C254.824 3.20982 254.601 2.67263 254.601 2.11243C254.601 1.55223 254.824 1.01502 255.22 0.618898C255.616 0.222775 256.153 0.000161237 256.713 -6.72335e-06ZM269.341 -6.17135e-06C269.902 0.000196533 270.439 0.222822 270.835 0.618937C271.231 1.01505 271.454 1.55224 271.454 2.11243C271.454 2.67262 271.231 3.20979 270.835 3.60589C270.439 4.002 269.902 4.22464 269.341 4.22488C268.781 4.22467 268.244 4.00205 267.848 3.60593C267.452 3.20982 267.229 2.67263 267.229 2.11243C267.229 1.55223 267.452 1.01502 267.848 0.618899C268.244 0.222776 268.781 0.000161789 269.341 -6.17135e-06ZM281.974 -5.61917e-06C282.251 0.000178411 282.525 0.0549754 282.781 0.161254C283.037 0.267532 283.27 0.423209 283.466 0.619387C283.661 0.815566 283.817 1.0484 283.922 1.30458C284.028 1.56077 284.082 1.83528 284.082 2.11244C284.082 2.38958 284.028 2.66409 283.922 2.92027C283.817 3.17644 283.661 3.40927 283.466 3.60545C283.27 3.80162 283.037 3.9573 282.781 4.06358C282.525 4.16987 282.251 4.22468 281.974 4.22488C281.414 4.22467 280.876 4.00205 280.48 3.60593C280.084 3.20982 279.862 2.67263 279.861 2.11243C279.862 1.55223 280.084 1.01502 280.48 0.618899C280.876 0.222776 281.414 0.000162342 281.974 -5.61917e-06ZM294.602 -5.06718e-06C295.162 0.000162942 295.699 0.222777 296.095 0.6189C296.491 1.01502 296.714 1.55223 296.714 2.11244C296.714 2.67263 296.491 3.20982 296.095 3.60593C295.699 4.00205 295.162 4.22467 294.602 4.22488C294.042 4.22464 293.504 4.002 293.108 3.60589C292.712 3.20979 292.49 2.67262 292.489 2.11244C292.49 1.55224 292.712 1.01505 293.108 0.618934C293.504 0.222818 294.042 0.000194228 294.602 -5.06718e-06ZM307.234 -4.515e-06C307.512 0.000179516 307.786 0.0549765 308.042 0.161255C308.298 0.267534 308.53 0.42321 308.726 0.619388C308.922 0.815567 309.077 1.0484 309.183 1.30459C309.289 1.56077 309.343 1.83528 309.343 2.11244C309.343 2.38958 309.289 2.66409 309.183 2.92027C309.077 3.17644 308.922 3.40927 308.726 3.60545C308.53 3.80162 308.298 3.9573 308.042 4.06358C307.786 4.16987 307.512 4.22468 307.234 4.22488C306.957 4.22521 306.682 4.17082 306.425 4.06483C306.168 3.95884 305.935 3.80332 305.738 3.60716C305.542 3.41099 305.386 3.17802 305.279 2.92155C305.173 2.66508 305.118 2.39014 305.118 2.11244C305.118 1.83472 305.173 1.55978 305.279 1.3033C305.386 1.04683 305.542 0.813849 305.738 0.617678C305.935 0.421508 306.168 0.265988 306.425 0.160004C306.682 0.0540201 306.957 -0.000351478 307.234 -4.515e-06ZM319.862 -3.96301e-06C320.423 0.000164047 320.96 0.222778 321.356 0.618901C321.752 1.01502 321.975 1.55223 321.975 2.11244C321.975 2.67263 321.752 3.20982 321.356 3.60593C320.96 4.00205 320.423 4.22467 319.862 4.22488C319.302 4.22464 318.765 4.002 318.369 3.6059C317.973 3.20979 317.75 2.67262 317.75 2.11244C317.75 1.55224 317.973 1.01506 318.369 0.61894C318.765 0.222824 319.302 0.000198692 319.862 -3.96301e-06ZM332.491 -3.41101e-06C333.051 0.000164599 333.588 0.222778 333.984 0.618902C334.38 1.01502 334.603 1.55223 334.603 2.11244C334.603 2.67263 334.38 3.20982 333.984 3.60593C333.588 4.00205 333.051 4.22468 332.491 4.22488C331.93 4.22464 331.393 4.002 330.997 3.6059C330.601 3.20979 330.378 2.67262 330.378 2.11244C330.378 1.55225 330.601 1.01506 330.997 0.61894C331.393 0.222825 331.93 0.000199244 332.491 -3.41101e-06ZM345.123 -2.85883e-06C345.683 0.000165151 346.22 0.222779 346.617 0.618902C347.013 1.01503 347.235 1.55224 347.235 2.11244C347.235 2.67263 347.013 3.20982 346.617 3.60594C346.22 4.00205 345.683 4.22468 345.123 4.22488C344.563 4.22464 344.026 4.002 343.63 3.6059C343.233 3.20979 343.011 2.67262 343.011 2.11244C343.011 1.55225 343.233 1.01506 343.63 0.618946C344.026 0.222831 344.563 0.000204275 345.123 -2.85883e-06ZM357.751 -2.30683e-06C358.311 0.000201516 358.849 0.222827 359.245 0.618943C359.641 1.01506 359.863 1.55225 359.864 2.11244C359.863 2.67262 359.641 3.20979 359.245 3.6059C358.849 4.002 358.311 4.22464 357.751 4.22488C357.191 4.22464 356.654 4.00201 356.258 3.6059C355.862 3.20979 355.639 2.67262 355.639 2.11244C355.639 1.55225 355.862 1.01506 356.258 0.618941C356.654 0.222826 357.191 0.000200348 357.751 -2.30683e-06ZM370.379 -1.75484e-06C370.657 -0.000265729 370.932 0.054194 371.188 0.160261C371.445 0.266327 371.678 0.421918 371.874 0.618129C372.07 0.81434 372.226 1.04732 372.332 1.30373C372.438 1.56014 372.492 1.83496 372.492 2.11244C372.492 2.38992 372.438 2.66472 372.332 2.92113C372.226 3.17753 372.07 3.4105 371.874 3.60671C371.678 3.80292 371.445 3.95851 371.188 4.06458C370.932 4.17065 370.657 4.22513 370.379 4.22488C369.819 4.22468 369.282 4.00205 368.886 3.60594C368.49 3.20982 368.267 2.67263 368.267 2.11244C368.267 1.55224 368.49 1.01503 368.886 0.618903C369.282 0.22278 369.819 0.000166206 370.379 -1.75484e-06ZM383.012 -1.20266e-06C383.572 0.000201501 384.109 0.222827 384.505 0.618942C384.901 1.01506 385.124 1.55225 385.124 2.11244C385.124 2.67262 384.901 3.20979 384.505 3.6059C384.109 4.00201 383.572 4.22464 383.012 4.22488C382.452 4.22468 381.914 4.00205 381.518 3.60594C381.122 3.20982 380.9 2.67263 380.899 2.11244C380.9 1.55224 381.122 1.01503 381.518 0.618904C381.914 0.222781 382.452 0.000166758 383.012 -1.20266e-06ZM395.64 -6.50662e-07C395.918 -0.000264625 396.192 0.0541951 396.449 0.160262C396.705 0.266328 396.938 0.421919 397.134 0.61813C397.331 0.814341 397.486 1.04732 397.592 1.30373C397.698 1.56014 397.753 1.83496 397.752 2.11244C397.753 2.38992 397.698 2.66472 397.592 2.92113C397.486 3.17753 397.331 3.4105 397.134 3.60671C396.938 3.80292 396.705 3.95851 396.449 4.06458C396.192 4.17066 395.918 4.22513 395.64 4.22488C395.08 4.22468 394.543 4.00205 394.147 3.60594C393.75 3.20982 393.528 2.67263 393.528 2.11244C393.528 1.55224 393.75 1.01503 394.147 0.618904C394.543 0.222781 395.08 0.00016731 395.64 -6.50662e-07ZM408.272 -9.84845e-08C408.833 0.000202605 409.37 0.222828 409.766 0.618944C410.162 1.01506 410.385 1.55225 410.385 2.11244C410.385 2.67262 410.162 3.20979 409.766 3.6059C409.37 4.00201 408.833 4.22464 408.272 4.22488C407.712 4.22468 407.175 4.00205 406.779 3.60594C406.383 3.20982 406.16 2.67263 406.16 2.11244C406.16 1.55224 406.383 1.01503 406.779 0.618905C407.175 0.222782 407.712 0.000167862 408.272 -9.84845e-08ZM420.901 4.53513e-07C421.461 0.000203157 421.998 0.222829 422.394 0.618944C422.79 1.01506 423.013 1.55225 423.013 2.11244C423.013 2.67262 422.79 3.20979 422.394 3.6059C421.998 4.00201 421.461 4.22464 420.901 4.22488C420.34 4.22468 419.803 4.00205 419.407 3.60594C419.011 3.20982 418.788 2.67263 418.788 2.11244C418.788 1.55224 419.011 1.01503 419.407 0.618905C419.803 0.222782 420.34 0.000168414 420.901 4.53513e-07ZM433.533 1.00569e-06C434.093 0.00020371 434.63 0.222829 435.026 0.618945C435.423 1.01506 435.645 1.55225 435.645 2.11244C435.645 2.67262 435.423 3.20979 435.026 3.6059C434.63 4.00201 434.093 4.22465 433.533 4.22488C432.973 4.22468 432.436 4.00205 432.039 3.60594C431.643 3.20982 431.421 2.67263 431.421 2.11244C431.421 1.55224 431.643 1.01503 432.039 0.618906C432.436 0.222783 432.973 0.000168966 433.533 1.00569e-06ZM446.161 1.55768e-06C446.721 0.000169567 447.258 0.222783 447.655 0.618907C448.051 1.01503 448.273 1.55224 448.273 2.11244C448.273 2.67263 448.051 3.20983 447.654 3.60594C447.258 4.00206 446.721 4.22468 446.161 4.22488C445.601 4.22464 445.064 4.00201 444.668 3.6059C444.271 3.20979 444.049 2.67262 444.049 2.11244C444.049 1.55225 444.271 1.01506 444.668 0.618946C445.064 0.222831 445.601 0.000205332 446.161 1.55768e-06Z" fill="#141416" fill-opacity="0.25"/>
<path d="M10.8383 6.92869C11.3985 6.92893 11.9356 7.15157 12.3317 7.54768C12.7279 7.94378 12.9505 8.48095 12.9507 9.04113C12.9505 9.60133 12.7279 10.1385 12.3318 10.5346C11.9357 10.9307 11.3985 11.1534 10.8383 11.1536C10.2781 11.1534 9.74086 10.9308 9.34473 10.5347C8.94859 10.1386 8.72598 9.60135 8.72585 9.04113C8.72601 8.48093 8.94865 7.94372 9.34478 7.5476C9.7409 7.15147 10.2781 6.92886 10.8383 6.92869ZM23.4663 6.92869C23.7438 6.92846 24.0186 6.98295 24.275 7.08903C24.5314 7.1951 24.7643 7.3507 24.9605 7.5469C25.1567 7.7431 25.3123 7.97607 25.4184 8.23247C25.5245 8.48886 25.579 8.76366 25.5788 9.04113C25.579 9.31861 25.5245 9.59342 25.4185 9.84982C25.3124 10.1062 25.1568 10.3392 24.9606 10.5354C24.7644 10.7316 24.5314 10.8872 24.275 10.9933C24.0186 11.0993 23.7438 11.1538 23.4663 11.1536C22.9061 11.1534 22.3689 10.9307 21.9728 10.5346C21.5767 10.1385 21.3541 9.60133 21.3539 9.04113C21.3541 8.48095 21.5767 7.94378 21.9729 7.54767C22.369 7.15157 22.9061 6.92893 23.4663 6.92869ZM36.0989 6.92869C36.6591 6.92893 37.1962 7.15157 37.5923 7.54768C37.9884 7.94378 38.2111 8.48095 38.2113 9.04113C38.2111 9.60133 37.9885 10.1385 37.5924 10.5346C37.1963 10.9307 36.6591 11.1534 36.0989 11.1536C35.5387 11.1534 35.0014 10.9308 34.6053 10.5347C34.2092 10.1386 33.9866 9.60135 33.9864 9.04113C33.9866 8.48093 34.2092 7.94372 34.6053 7.5476C35.0015 7.15147 35.5387 6.92886 36.0989 6.92869ZM48.7269 6.92869C49.2871 6.92893 49.8242 7.15157 50.2204 7.54768C50.6165 7.94378 50.8391 8.48095 50.8393 9.04114C50.8391 9.60133 50.6165 10.1385 50.2204 10.5346C49.8243 10.9307 49.2871 11.1534 48.7269 11.1536C48.1667 11.1534 47.6295 10.9307 47.2334 10.5346C46.8373 10.1385 46.6147 9.60133 46.6145 9.04114C46.6147 8.48095 46.8373 7.94378 47.2334 7.54768C47.6295 7.15157 48.1667 6.92893 48.7269 6.92869ZM61.3595 6.9287C61.9196 6.92893 62.4568 7.15157 62.8529 7.54768C63.249 7.94379 63.4717 8.48095 63.4719 9.04114C63.4717 9.60133 63.2491 10.1385 62.853 10.5346C62.4568 10.9307 61.9196 11.1534 61.3595 11.1536C61.082 11.1539 60.8072 11.0994 60.5507 10.9933C60.2943 10.8873 60.0613 10.7317 59.8651 10.5355C59.6689 10.3393 59.5133 10.1063 59.4073 9.84986C59.3012 9.59344 59.2467 9.31862 59.247 9.04114C59.2467 8.76365 59.3012 8.48884 59.4073 8.23243C59.5133 7.97601 59.6689 7.74304 59.8651 7.54683C60.0614 7.35061 60.2943 7.19502 60.5508 7.08896C60.8072 6.98289 61.082 6.92843 61.3595 6.9287ZM73.9875 6.9287C74.5477 6.92893 75.0848 7.15157 75.4809 7.54768C75.877 7.94379 76.0997 8.48096 76.0999 9.04114C76.0997 9.60133 75.8771 10.1385 75.481 10.5346C75.0848 10.9307 74.5477 11.1534 73.9875 11.1536C73.4273 11.1534 72.8901 10.9307 72.494 10.5346C72.0979 10.1385 71.8752 9.60133 71.875 9.04114C71.8753 8.48096 72.0979 7.94379 72.494 7.54768C72.8901 7.15157 73.4273 6.92893 73.9875 6.9287ZM86.62 6.9287C86.8972 6.9289 87.1715 6.98372 87.4275 7.09001C87.6834 7.1963 87.9159 7.35198 88.1117 7.54815C88.3074 7.74433 88.4626 7.97716 88.5684 8.23333C88.6741 8.4895 88.7283 8.764 88.7279 9.04114C88.7283 9.31828 88.6741 9.59279 88.5684 9.84897C88.4627 10.1051 88.3075 10.338 88.1117 10.5342C87.916 10.7303 87.6835 10.886 87.4275 10.9923C87.1716 11.0986 86.8972 11.1534 86.62 11.1536C86.3425 11.1539 86.0677 11.0994 85.8113 10.9933C85.5549 10.8873 85.3219 10.7317 85.1257 10.5355C84.9295 10.3393 84.7739 10.1063 84.6678 9.84986C84.5618 9.59344 84.5073 9.31862 84.5076 9.04114C84.5073 8.76365 84.5618 8.48884 84.6679 8.23243C84.7739 7.97602 84.9295 7.74304 85.1257 7.54683C85.3219 7.35062 85.5549 7.19503 85.8113 7.08896C86.0677 6.98289 86.3426 6.92843 86.62 6.9287ZM99.2481 6.9287C99.8082 6.92893 100.345 7.15157 100.742 7.54768C101.138 7.94379 101.36 8.48096 101.36 9.04114C101.36 9.60133 101.138 10.1385 100.742 10.5346C100.345 10.9308 99.8083 11.1534 99.2481 11.1536C98.6879 11.1534 98.1507 10.9307 97.7545 10.5346C97.3584 10.1385 97.1358 9.60133 97.1356 9.04114C97.1359 8.48096 97.3585 7.94379 97.7546 7.54768C98.1507 7.15157 98.6879 6.92894 99.2481 6.9287ZM111.876 6.9287C112.154 6.92843 112.428 6.98289 112.685 7.08896C112.941 7.19503 113.174 7.35062 113.37 7.54683C113.567 7.74304 113.722 7.97602 113.828 8.23243C113.934 8.48884 113.989 8.76365 113.989 9.04114C113.989 9.31863 113.934 9.59345 113.828 9.84987C113.722 10.1063 113.567 10.3393 113.37 10.5355C113.174 10.7317 112.941 10.8873 112.685 10.9934C112.428 11.0994 112.154 11.1539 111.876 11.1536C111.316 11.1534 110.779 10.9307 110.383 10.5346C109.986 10.1385 109.764 9.60133 109.764 9.04114C109.764 8.48095 109.987 7.94378 110.383 7.54767C110.779 7.15157 111.316 6.92893 111.876 6.9287ZM124.509 6.9287C125.069 6.92894 125.606 7.15157 126.002 7.54768C126.398 7.94379 126.621 8.48096 126.621 9.04114C126.621 9.60133 126.398 10.1385 126.002 10.5346C125.606 10.9308 125.069 11.1534 124.509 11.1536C124.231 11.1539 123.956 11.0994 123.7 10.9934C123.444 10.8873 123.21 10.7317 123.014 10.5355C122.818 10.3393 122.663 10.1063 122.556 9.84987C122.45 9.59345 122.396 9.31863 122.396 9.04114C122.396 8.76365 122.45 8.48884 122.556 8.23243C122.663 7.97602 122.818 7.74304 123.014 7.54683C123.211 7.35062 123.444 7.19503 123.7 7.08896C123.956 6.98289 124.231 6.92843 124.509 6.9287ZM137.137 6.9287C137.697 6.92894 138.234 7.15157 138.63 7.54768C139.026 7.94379 139.249 8.48096 139.249 9.04114C139.249 9.60133 139.026 10.1385 138.63 10.5346C138.234 10.9308 137.697 11.1534 137.137 11.1536C136.576 11.1534 136.039 10.9308 135.643 10.5346C135.247 10.1385 135.024 9.60133 135.024 9.04114C135.024 8.48096 135.247 7.94379 135.643 7.54768C136.039 7.15157 136.576 6.92894 137.137 6.9287ZM149.769 6.9287C150.046 6.9289 150.321 6.9837 150.577 7.08998C150.833 7.19626 151.065 7.35193 151.261 7.54811C151.457 7.74428 151.612 7.97711 151.718 8.23329C151.824 8.48947 151.878 8.76398 151.878 9.04114C151.878 9.3183 151.824 9.59282 151.718 9.84901C151.612 10.1052 151.457 10.338 151.261 10.5342C151.065 10.7304 150.833 10.8861 150.577 10.9923C150.321 11.0986 150.046 11.1534 149.769 11.1536C149.492 11.1539 149.217 11.0994 148.961 10.9934C148.704 10.8873 148.471 10.7317 148.275 10.5355C148.079 10.3393 147.923 10.1063 147.817 9.84987C147.711 9.59345 147.657 9.31863 147.657 9.04114C147.657 8.76366 147.711 8.48884 147.817 8.23243C147.923 7.97602 148.079 7.74304 148.275 7.54683C148.471 7.35062 148.704 7.19503 148.961 7.08896C149.217 6.98289 149.492 6.92844 149.769 6.9287ZM162.397 6.9287C162.957 6.92894 163.495 7.15157 163.891 7.54768C164.287 7.94379 164.509 8.48096 164.51 9.04114C164.509 9.60133 164.287 10.1385 163.891 10.5346C163.495 10.9308 162.957 11.1534 162.397 11.1536C161.837 11.1534 161.3 10.9308 160.904 10.5346C160.508 10.1385 160.285 9.60133 160.285 9.04114C160.285 8.48096 160.508 7.94379 160.904 7.54769C161.3 7.15158 161.837 6.92894 162.397 6.9287ZM175.026 6.9287C175.586 6.92894 176.123 7.15157 176.519 7.54768C176.915 7.94379 177.138 8.48096 177.138 9.04114C177.138 9.60133 176.915 10.1385 176.519 10.5346C176.123 10.9308 175.586 11.1534 175.026 11.1536C174.465 11.1534 173.928 10.9308 173.532 10.5347C173.136 10.1386 172.913 9.60135 172.913 9.04114C172.913 8.48094 173.136 7.94373 173.532 7.5476C173.928 7.15148 174.465 6.92887 175.026 6.9287ZM187.658 6.9287C188.218 6.92894 188.755 7.15158 189.151 7.54768C189.547 7.94379 189.77 8.48096 189.77 9.04114C189.77 9.60133 189.547 10.1385 189.151 10.5346C188.755 10.9308 188.218 11.1534 187.658 11.1536C187.098 11.1534 186.56 10.9308 186.164 10.5346C185.768 10.1385 185.546 9.60133 185.545 9.04114C185.546 8.48096 185.768 7.94379 186.164 7.54768C186.56 7.15157 187.098 6.92894 187.658 6.9287ZM200.286 6.9287C200.846 6.92887 201.383 7.15148 201.779 7.54761C202.176 7.94373 202.398 8.48094 202.398 9.04114C202.398 9.60136 202.176 10.1386 201.779 10.5347C201.383 10.9308 200.846 11.1534 200.286 11.1536C199.726 11.1534 199.188 10.9308 198.792 10.5346C198.396 10.1385 198.174 9.60133 198.173 9.04114C198.174 8.48096 198.396 7.94379 198.792 7.54768C199.189 7.15157 199.726 6.92894 200.286 6.9287ZM212.918 6.9287C213.479 6.92894 214.016 7.15158 214.412 7.54768C214.808 7.94379 215.031 8.48096 215.031 9.04114C215.031 9.60133 214.808 10.1385 214.412 10.5346C214.016 10.9308 213.479 11.1534 212.918 11.1536C212.641 11.1538 212.366 11.0994 212.11 10.9933C211.853 10.8872 211.62 10.7316 211.424 10.5354C211.228 10.3392 211.072 10.1062 210.966 9.84983C210.86 9.59343 210.806 9.31862 210.806 9.04114C210.806 8.76367 210.86 8.48887 210.966 8.23247C211.072 7.97608 211.228 7.74311 211.424 7.54691C211.62 7.3507 211.853 7.19511 212.11 7.08903C212.366 6.98296 212.641 6.92847 212.918 6.9287ZM225.546 6.9287C226.107 6.92887 226.644 7.15148 227.04 7.54761C227.436 7.94373 227.659 8.48094 227.659 9.04114C227.659 9.60136 227.436 10.1386 227.04 10.5347C226.644 10.9308 226.107 11.1534 225.546 11.1536C224.986 11.1534 224.449 10.9308 224.053 10.5346C223.657 10.1385 223.434 9.60133 223.434 9.04114C223.434 8.48096 223.657 7.94379 224.053 7.54768C224.449 7.15158 224.986 6.92894 225.546 6.9287ZM238.179 6.9287C238.739 6.92891 239.276 7.15153 239.673 7.54765C240.069 7.94376 240.291 8.48095 240.291 9.04114C240.291 9.60135 240.069 10.1386 239.673 10.5347C239.276 10.9308 238.739 11.1534 238.179 11.1536C237.901 11.1539 237.626 11.0996 237.37 10.9936C237.113 10.8876 236.88 10.7321 236.683 10.5359C236.487 10.3397 236.331 10.1067 236.224 9.85026C236.118 9.59378 236.063 9.31884 236.062 9.04114C236.063 8.76345 236.118 8.48851 236.224 8.23205C236.331 7.97558 236.487 7.74261 236.683 7.54644C236.88 7.35028 237.113 7.19475 237.37 7.08876C237.626 6.98276 237.901 6.92838 238.179 6.9287ZM250.807 6.9287C251.367 6.92894 251.905 7.15158 252.301 7.54768C252.697 7.94379 252.919 8.48096 252.92 9.04114C252.919 9.60134 252.697 10.1385 252.301 10.5346C251.905 10.9308 251.367 11.1534 250.807 11.1536C250.247 11.1534 249.71 10.9308 249.314 10.5347C248.918 10.1386 248.695 9.60135 248.695 9.04114C248.695 8.48095 248.918 7.94376 249.314 7.54765C249.71 7.15153 250.247 6.92891 250.807 6.9287ZM263.435 6.9287C263.995 6.92891 264.533 7.15153 264.929 7.54765C265.325 7.94376 265.547 8.48095 265.548 9.04114C265.548 9.60135 265.325 10.1386 264.929 10.5347C264.533 10.9308 263.995 11.1534 263.435 11.1536C262.875 11.1534 262.338 10.9308 261.942 10.5346C261.546 10.1385 261.323 9.60134 261.323 9.04114C261.323 8.48096 261.546 7.94379 261.942 7.54769C262.338 7.15158 262.875 6.92894 263.435 6.9287ZM276.068 6.9287C276.628 6.92894 277.165 7.15158 277.561 7.54769C277.957 7.94379 278.18 8.48096 278.18 9.04115C278.18 9.60134 277.957 10.1385 277.561 10.5346C277.165 10.9308 276.628 11.1534 276.068 11.1536C275.508 11.1534 274.97 10.9308 274.574 10.5347C274.178 10.1386 273.956 9.60135 273.955 9.04115C273.956 8.48095 274.178 7.94376 274.574 7.54765C274.97 7.15153 275.508 6.92891 276.068 6.9287ZM288.696 6.92871C289.256 6.92891 289.793 7.15153 290.189 7.54765C290.585 7.94376 290.808 8.48095 290.808 9.04115C290.808 9.60135 290.585 10.1386 290.189 10.5347C289.793 10.9308 289.256 11.1534 288.696 11.1536C288.136 11.1534 287.598 10.9308 287.202 10.5346C286.806 10.1385 286.584 9.60134 286.583 9.04115C286.584 8.48096 286.806 7.94379 287.202 7.54768C287.598 7.15158 288.136 6.92894 288.696 6.92871ZM301.324 6.92871C301.602 6.92846 301.876 6.98293 302.133 7.089C302.389 7.19508 302.622 7.35067 302.818 7.54687C303.015 7.74308 303.17 7.97605 303.276 8.23246C303.382 8.48886 303.437 8.76367 303.437 9.04115C303.437 9.31863 303.382 9.59344 303.276 9.84985C303.17 10.1063 303.015 10.3392 302.818 10.5355C302.622 10.7317 302.389 10.8873 302.133 10.9933C301.876 11.0994 301.602 11.1539 301.324 11.1536C300.764 11.1534 300.227 10.9308 299.831 10.5346C299.434 10.1385 299.212 9.60134 299.212 9.04115C299.212 8.48096 299.434 7.9438 299.831 7.54769C300.227 7.15158 300.764 6.92894 301.324 6.92871ZM313.956 6.92871C314.517 6.92891 315.054 7.15153 315.45 7.54765C315.846 7.94376 316.069 8.48095 316.069 9.04115C316.069 9.60135 315.846 10.1386 315.45 10.5347C315.054 10.9308 314.517 11.1534 313.956 11.1536C313.396 11.1534 312.859 10.9308 312.463 10.5346C312.067 10.1385 311.844 9.60134 311.844 9.04115C311.844 8.48097 312.067 7.9438 312.463 7.54769C312.859 7.15158 313.396 6.92895 313.956 6.92871ZM326.585 6.92871C327.145 6.92891 327.682 7.15153 328.078 7.54765C328.474 7.94377 328.697 8.48096 328.697 9.04115C328.697 9.60135 328.474 10.1386 328.078 10.5347C327.682 10.9308 327.145 11.1534 326.585 11.1536C326.024 11.1534 325.487 10.9308 325.091 10.5346C324.695 10.1385 324.472 9.60134 324.472 9.04115C324.472 8.48097 324.695 7.9438 325.091 7.54769C325.487 7.15158 326.024 6.92894 326.585 6.92871ZM339.217 6.92871C339.777 6.92891 340.314 7.15153 340.71 7.54765C341.107 7.94377 341.329 8.48096 341.329 9.04115C341.329 9.60135 341.107 10.1386 340.711 10.5347C340.314 10.9308 339.777 11.1534 339.217 11.1536C338.657 11.1534 338.12 10.9308 337.724 10.5346C337.327 10.1385 337.105 9.60134 337.105 9.04115C337.105 8.48097 337.327 7.9438 337.724 7.54769C338.12 7.15158 338.657 6.92894 339.217 6.92871ZM351.845 6.92871C352.405 6.92895 352.943 7.15158 353.339 7.54769C353.735 7.9438 353.957 8.48097 353.958 9.04115C353.957 9.60134 353.735 10.1385 353.339 10.5346C352.943 10.9308 352.405 11.1534 351.845 11.1536C351.285 11.1534 350.748 10.9308 350.352 10.5347C349.956 10.1386 349.733 9.60135 349.733 9.04115C349.733 8.48096 349.956 7.94377 350.352 7.54765C350.748 7.15153 351.285 6.92891 351.845 6.92871ZM364.478 6.92871C365.038 6.92891 365.575 7.15154 365.971 7.54765C366.367 7.94377 366.59 8.48096 366.59 9.04115C366.59 9.60135 366.367 10.1386 365.971 10.5347C365.575 10.9308 365.038 11.1534 364.478 11.1536C363.917 11.1534 363.38 10.9308 362.984 10.5346C362.588 10.1385 362.365 9.60134 362.365 9.04115C362.365 8.48097 362.588 7.9438 362.984 7.54769C363.38 7.15158 363.917 6.92895 364.478 6.92871ZM377.106 6.92871C377.666 6.92895 378.203 7.15158 378.599 7.54769C378.995 7.9438 379.218 8.48097 379.218 9.04115C379.218 9.60134 378.995 10.1385 378.599 10.5346C378.203 10.9308 377.666 11.1534 377.106 11.1536C376.546 11.1534 376.008 10.9308 375.612 10.5347C375.216 10.1386 374.994 9.60135 374.993 9.04115C374.994 8.48096 375.216 7.94377 375.612 7.54765C376.008 7.15154 376.546 6.92891 377.106 6.92871ZM389.734 6.92871C390.012 6.92846 390.286 6.98293 390.543 7.08901C390.799 7.19508 391.032 7.35067 391.228 7.54688C391.425 7.74309 391.58 7.97606 391.686 8.23246C391.792 8.48887 391.847 8.76367 391.846 9.04115C391.847 9.31863 391.792 9.59345 391.686 9.84986C391.58 10.1063 391.425 10.3392 391.228 10.5355C391.032 10.7317 390.799 10.8873 390.543 10.9933C390.286 11.0994 390.012 11.1539 389.734 11.1536C389.174 11.1534 388.637 10.9308 388.241 10.5347C387.844 10.1386 387.622 9.60135 387.622 9.04115C387.622 8.48096 387.844 7.94377 388.241 7.54765C388.637 7.15154 389.174 6.92891 389.734 6.92871ZM402.366 6.92871C402.927 6.92895 403.464 7.15158 403.86 7.54769C404.256 7.9438 404.479 8.48097 404.479 9.04115C404.479 9.60134 404.256 10.1385 403.86 10.5346C403.464 10.9308 402.927 11.1534 402.366 11.1536C401.806 11.1534 401.269 10.9308 400.873 10.5347C400.477 10.1386 400.254 9.60135 400.254 9.04115C400.254 8.48096 400.477 7.94377 400.873 7.54765C401.269 7.15154 401.806 6.92891 402.366 6.92871ZM414.995 6.92871C415.555 6.92895 416.092 7.15158 416.488 7.54769C416.884 7.9438 417.107 8.48097 417.107 9.04115C417.107 9.60134 416.884 10.1385 416.488 10.5346C416.092 10.9308 415.555 11.1534 414.995 11.1536C414.434 11.1534 413.897 10.9308 413.501 10.5347C413.105 10.1386 412.882 9.60135 412.882 9.04115C412.882 8.48096 413.105 7.94377 413.501 7.54765C413.897 7.15154 414.434 6.92891 414.995 6.92871ZM427.627 6.92871C428.187 6.92895 428.724 7.15158 429.12 7.54769C429.517 7.9438 429.739 8.48097 429.739 9.04115C429.739 9.60134 429.517 10.1385 429.12 10.5346C428.724 10.9308 428.187 11.1534 427.627 11.1536C427.067 11.1534 426.53 10.9308 426.133 10.5347C425.737 10.1386 425.515 9.60135 425.515 9.04115C425.515 8.48096 425.737 7.94377 426.133 7.54765C426.53 7.15154 427.067 6.92891 427.627 6.92871ZM440.255 6.92871C440.815 6.92891 441.352 7.15154 441.748 7.54765C442.145 7.94377 442.367 8.48096 442.367 9.04115C442.367 9.60135 442.145 10.1386 441.749 10.5347C441.352 10.9308 440.815 11.1534 440.255 11.1536C439.695 11.1534 439.158 10.9308 438.762 10.5346C438.365 10.1385 438.143 9.60134 438.143 9.04115C438.143 8.48097 438.365 7.9438 438.762 7.54769C439.158 7.15158 439.695 6.92895 440.255 6.92871ZM452.888 6.92871C453.448 6.92895 453.985 7.15159 454.381 7.54769C454.777 7.9438 455 8.48097 455 9.04115C455 9.60134 454.777 10.1385 454.381 10.5347C453.985 10.9308 453.448 11.1534 452.888 11.1536C452.61 11.1539 452.335 11.0994 452.079 10.9933C451.822 10.8873 451.589 10.7317 451.393 10.5355C451.197 10.3393 451.041 10.1063 450.935 9.84986C450.829 9.59345 450.775 9.31864 450.775 9.04115C450.775 8.76367 450.829 8.48887 450.935 8.23246C451.041 7.97606 451.197 7.74309 451.393 7.54688C451.589 7.35067 451.822 7.19508 452.079 7.08901C452.335 6.98294 452.61 6.92847 452.888 6.92871Z" fill="#141416" fill-opacity="0.25"/>
</g>
</svg>
